<svg xmlns="http://www.w3.org/2000/svg" viewBox="0 0 2560 1440" width="2560" height="1440"
     role="img" aria-label="Platzhalter — hier steht spaeter eine Aufnahme des Projekts.">
  <!--
    Motivtafel, kein Bild (DESIGN §4.1a, D-376). Sie ist erkennbar eine
    Zeichnung: flache Flaechen, keine Fototiefe, Figuren als Silhouette ohne
    Gesicht (§4.2). Sie haelt den Platz sichtbar frei und behauptet nichts.
    Liegt eine Datei unter public/bilder/projekt.*, gewinnt die. O-13.
    Erzeugt von scripts/motivtafeln.py — nicht von Hand aendern.
  -->
  <defs>
    <!-- Der Tafel-Verlauf aus DESIGN §4.1b, nicht der UI-Flaechenverlauf aus
         §1. Warum das zwei verschiedene sind, steht oben bei HIMMEL. -->
    <linearGradient id="grund" x1="0" y1="0" x2="0" y2="1">
      <stop offset="0" stop-color="#33333C"/>
      <stop offset="0.55" stop-color="#2C2C34"/>
      <stop offset="1" stop-color="#0C0C10"/>
    </linearGradient>
    <radialGradient id="schein" cx="0.5" cy="0.22" r="0.78">
      <stop offset="0" stop-color="#F59E0B" stop-opacity="0.16"/>
      <stop offset="0.55" stop-color="#F59E0B" stop-opacity="0.05"/>
      <stop offset="1" stop-color="#F59E0B" stop-opacity="0"/>
    </radialGradient>
  </defs>

  <rect width="2560" height="1440" fill="url(#grund)"/>
  <rect width="2560" height="1440" fill="url(#schein)"/>

  <g stroke="#26262C" stroke-width="1.5" opacity="0.5" fill="none">
    <line x1="-2416" y1="1440" x2="1280" y2="893"/>
    <line x1="-2132" y1="1440" x2="1280" y2="893"/>
    <line x1="-1848" y1="1440" x2="1280" y2="893"/>
    <line x1="-1564" y1="1440" x2="1280" y2="893"/>
    <line x1="-1280" y1="1440" x2="1280" y2="893"/>
    <line x1="-996" y1="1440" x2="1280" y2="893"/>
    <line x1="-712" y1="1440" x2="1280" y2="893"/>
    <line x1="-428" y1="1440" x2="1280" y2="893"/>
    <line x1="-144" y1="1440" x2="1280" y2="893"/>
    <line x1="140" y1="1440" x2="1280" y2="893"/>
    <line x1="424" y1="1440" x2="1280" y2="893"/>
    <line x1="708" y1="1440" x2="1280" y2="893"/>
    <line x1="992" y1="1440" x2="1280" y2="893"/>
    <line x1="1276" y1="1440" x2="1280" y2="893"/>
    <line x1="1560" y1="1440" x2="1280" y2="893"/>
    <line x1="1844" y1="1440" x2="1280" y2="893"/>
    <line x1="2128" y1="1440" x2="1280" y2="893"/>
    <line x1="2412" y1="1440" x2="1280" y2="893"/>
    <line x1="2696" y1="1440" x2="1280" y2="893"/>
    <line x1="0" y1="898" x2="2560" y2="898"/>
    <line x1="0" y1="916" x2="2560" y2="916"/>
    <line x1="0" y1="947" x2="2560" y2="947"/>
    <line x1="0" y1="992" x2="2560" y2="992"/>
    <line x1="0" y1="1052" x2="2560" y2="1052"/>
    <line x1="0" y1="1126" x2="2560" y2="1126"/>
    <line x1="0" y1="1216" x2="2560" y2="1216"/>
    <line x1="0" y1="1320" x2="2560" y2="1320"/>
  </g>
</svg>
