<svg xmlns="http://www.w3.org/2000/svg" viewBox="0 0 2560 1440" width="2560" height="1440"
     role="img" aria-label="Motivtafel — hier steht spaeter eine Aufnahme aus dem Objektschutz.">
  <!--
    Motivtafel, kein Bild (DESIGN §4.1a, D-376). Sie ist erkennbar eine
    Zeichnung: flache Flaechen, keine Fototiefe, Figuren als Silhouette ohne
    Gesicht (§4.2). Sie haelt den Platz sichtbar frei und behauptet nichts.
    Liegt eine Datei unter public/bilder/security.*, gewinnt die. O-13.
    Erzeugt von scripts/motivtafeln.py — nicht von Hand aendern.
  -->
  <defs>
    <linearGradient id="grund" x1="0" y1="0" x2="0" y2="1">
      <stop offset="0" stop-color="#1F1F24"/>
      <stop offset="0.55" stop-color="#17171B"/>
      <stop offset="1" stop-color="#101013"/>
    </linearGradient>
    <radialGradient id="schein" cx="0.5" cy="0.22" r="0.78">
      <stop offset="0" stop-color="#2F6BFF" stop-opacity="0.16"/>
      <stop offset="0.55" stop-color="#2F6BFF" stop-opacity="0.05"/>
      <stop offset="1" stop-color="#2F6BFF" stop-opacity="0"/>
    </radialGradient>
    <linearGradient id="overlay" x1="0" y1="0" x2="0" y2="1">
      <!-- derselbe Verlauf wie `--bild-overlay` in DESIGN §4.4, hier
           ausgeschrieben: eine SVG-Datei sieht die CSS-Variablen des
           Dokuments nicht. -->
      <stop offset="0" stop-color="#08080A" stop-opacity="0.15"/>
      <stop offset="0.55" stop-color="#08080A" stop-opacity="0.55"/>
      <stop offset="1" stop-color="#08080A" stop-opacity="0.92"/>
    </linearGradient>
  </defs>

  <rect width="2560" height="1440" fill="url(#grund)"/>
  <rect width="2560" height="1440" fill="url(#schein)"/>

  <!-- Nacht am Werkstor: Halle, Mastleuchte, Zaun, Schranke. -->
  <g fill="#1C1C21">
    <rect x="90" y="520" width="900" height="490"/>
    <path d="M 90 520 L 540 386 L 990 520 Z"/>
    <rect x="1700" y="600" width="760" height="410"/>
  </g>
  <defs>
    <linearGradient id="buehne470" x1="0" y1="0" x2="0" y2="1">
      <stop offset="0" stop-color="#2F6BFF" stop-opacity="0"/>
      <stop offset="0.62" stop-color="#2F6BFF" stop-opacity="0.085"/>
      <stop offset="1" stop-color="#2F6BFF" stop-opacity="0.13"/>
    </linearGradient>
  </defs>
  <rect x="0" y="470" width="2560" height="540" fill="url(#buehne470)"/>
  <rect x="0" y="1007" width="2560" height="3" fill="#2F6BFF" opacity="0.55"/>
  <rect x="0" y="1010" width="2560" height="430" fill="#0B0B0E"/>

  <g fill="#2F6BFF" opacity="0.16">
    <rect x="180" y="640" width="66" height="118"/>
    <rect x="298" y="640" width="66" height="118"/>
    <rect x="416" y="640" width="66" height="118"/>
    <rect x="534" y="640" width="66" height="118"/>
    <rect x="652" y="640" width="66" height="118"/>
    <rect x="770" y="640" width="66" height="118"/>
    <rect x="888" y="640" width="66" height="118"/>
  </g>
  <!-- Der Lichtkegel: zwei flache Stufen, kein Verlauf. -->
  <path d="M 1290 250 L 900 1010 L 1680 1010 Z" fill="#2F6BFF" opacity="0.13"/>
  <path d="M 1290 250 L 1076 1010 L 1504 1010 Z" fill="#2F6BFF" opacity="0.10"/>
  <g fill="#0B0B0E">
    <rect x="1278" y="250" width="24" height="760"/>
    <rect x="1238" y="226" width="104" height="28" rx="11"/>
  </g>
  <!-- Zaun: das Motiv, das den Bereich benennt. -->
  <g stroke="#0B0B0E" stroke-width="5" opacity="0.95">
    <line x1="0" y1="1010" x2="38" y2="740"/>
    <line x1="0" y1="740" x2="38" y2="1010"/>
    <line x1="52" y1="1010" x2="90" y2="740"/>
    <line x1="52" y1="740" x2="90" y2="1010"/>
    <line x1="104" y1="1010" x2="142" y2="740"/>
    <line x1="104" y1="740" x2="142" y2="1010"/>
    <line x1="156" y1="1010" x2="194" y2="740"/>
    <line x1="156" y1="740" x2="194" y2="1010"/>
    <line x1="208" y1="1010" x2="246" y2="740"/>
    <line x1="208" y1="740" x2="246" y2="1010"/>
    <line x1="260" y1="1010" x2="298" y2="740"/>
    <line x1="260" y1="740" x2="298" y2="1010"/>
    <line x1="312" y1="1010" x2="350" y2="740"/>
    <line x1="312" y1="740" x2="350" y2="1010"/>
    <line x1="364" y1="1010" x2="402" y2="740"/>
    <line x1="364" y1="740" x2="402" y2="1010"/>
    <line x1="416" y1="1010" x2="454" y2="740"/>
    <line x1="416" y1="740" x2="454" y2="1010"/>
    <line x1="468" y1="1010" x2="506" y2="740"/>
    <line x1="468" y1="740" x2="506" y2="1010"/>
    <line x1="520" y1="1010" x2="558" y2="740"/>
    <line x1="520" y1="740" x2="558" y2="1010"/>
    <line x1="572" y1="1010" x2="610" y2="740"/>
    <line x1="572" y1="740" x2="610" y2="1010"/>
    <line x1="624" y1="1010" x2="662" y2="740"/>
    <line x1="624" y1="740" x2="662" y2="1010"/>
    <line x1="676" y1="1010" x2="714" y2="740"/>
    <line x1="676" y1="740" x2="714" y2="1010"/>
    <line x1="728" y1="1010" x2="766" y2="740"/>
    <line x1="728" y1="740" x2="766" y2="1010"/>
    <line x1="780" y1="1010" x2="818" y2="740"/>
    <line x1="780" y1="740" x2="818" y2="1010"/>
    <line x1="832" y1="1010" x2="870" y2="740"/>
    <line x1="832" y1="740" x2="870" y2="1010"/>
    <line x1="884" y1="1010" x2="922" y2="740"/>
    <line x1="884" y1="740" x2="922" y2="1010"/>
    <line x1="936" y1="1010" x2="974" y2="740"/>
    <line x1="936" y1="740" x2="974" y2="1010"/>
    <line x1="988" y1="1010" x2="1026" y2="740"/>
    <line x1="988" y1="740" x2="1026" y2="1010"/>
    <line x1="1040" y1="1010" x2="1078" y2="740"/>
    <line x1="1040" y1="740" x2="1078" y2="1010"/>
    <line x1="1092" y1="1010" x2="1130" y2="740"/>
    <line x1="1092" y1="740" x2="1130" y2="1010"/>
    <line x1="1144" y1="1010" x2="1182" y2="740"/>
    <line x1="1144" y1="740" x2="1182" y2="1010"/>
    <line x1="1196" y1="1010" x2="1234" y2="740"/>
    <line x1="1196" y1="740" x2="1234" y2="1010"/>
    <line x1="1248" y1="1010" x2="1286" y2="740"/>
    <line x1="1248" y1="740" x2="1286" y2="1010"/>
    <line x1="1300" y1="1010" x2="1338" y2="740"/>
    <line x1="1300" y1="740" x2="1338" y2="1010"/>
    <line x1="1352" y1="1010" x2="1390" y2="740"/>
    <line x1="1352" y1="740" x2="1390" y2="1010"/>
    <line x1="1404" y1="1010" x2="1442" y2="740"/>
    <line x1="1404" y1="740" x2="1442" y2="1010"/>
    <line x1="1456" y1="1010" x2="1494" y2="740"/>
    <line x1="1456" y1="740" x2="1494" y2="1010"/>
    <line x1="1508" y1="1010" x2="1546" y2="740"/>
    <line x1="1508" y1="740" x2="1546" y2="1010"/>
    <line x1="1560" y1="1010" x2="1598" y2="740"/>
    <line x1="1560" y1="740" x2="1598" y2="1010"/>
    <line x1="1612" y1="1010" x2="1650" y2="740"/>
    <line x1="1612" y1="740" x2="1650" y2="1010"/>
    <line x1="1664" y1="1010" x2="1702" y2="740"/>
    <line x1="1664" y1="740" x2="1702" y2="1010"/>
    <line x1="1716" y1="1010" x2="1754" y2="740"/>
    <line x1="1716" y1="740" x2="1754" y2="1010"/>
    <line x1="1768" y1="1010" x2="1806" y2="740"/>
    <line x1="1768" y1="740" x2="1806" y2="1010"/>
    <line x1="1820" y1="1010" x2="1858" y2="740"/>
    <line x1="1820" y1="740" x2="1858" y2="1010"/>
    <line x1="1872" y1="1010" x2="1910" y2="740"/>
    <line x1="1872" y1="740" x2="1910" y2="1010"/>
    <line x1="1924" y1="1010" x2="1962" y2="740"/>
    <line x1="1924" y1="740" x2="1962" y2="1010"/>
    <line x1="1976" y1="1010" x2="2014" y2="740"/>
    <line x1="1976" y1="740" x2="2014" y2="1010"/>
    <line x1="2028" y1="1010" x2="2066" y2="740"/>
    <line x1="2028" y1="740" x2="2066" y2="1010"/>
    <line x1="2080" y1="1010" x2="2118" y2="740"/>
    <line x1="2080" y1="740" x2="2118" y2="1010"/>
    <line x1="2132" y1="1010" x2="2170" y2="740"/>
    <line x1="2132" y1="740" x2="2170" y2="1010"/>
    <line x1="2184" y1="1010" x2="2222" y2="740"/>
    <line x1="2184" y1="740" x2="2222" y2="1010"/>
    <line x1="2236" y1="1010" x2="2274" y2="740"/>
    <line x1="2236" y1="740" x2="2274" y2="1010"/>
    <line x1="2288" y1="1010" x2="2326" y2="740"/>
    <line x1="2288" y1="740" x2="2326" y2="1010"/>
    <line x1="2340" y1="1010" x2="2378" y2="740"/>
    <line x1="2340" y1="740" x2="2378" y2="1010"/>
    <line x1="2392" y1="1010" x2="2430" y2="740"/>
    <line x1="2392" y1="740" x2="2430" y2="1010"/>
    <line x1="2444" y1="1010" x2="2482" y2="740"/>
    <line x1="2444" y1="740" x2="2482" y2="1010"/>
    <line x1="2496" y1="1010" x2="2534" y2="740"/>
    <line x1="2496" y1="740" x2="2534" y2="1010"/>
    <line x1="2548" y1="1010" x2="2586" y2="740"/>
    <line x1="2548" y1="740" x2="2586" y2="1010"/>
  </g>
  <g fill="#0B0B0E">
    <rect x="0" y="722" width="2560" height="16"/>
    <rect x="0" y="1004" width="2560" height="20"/>
    <rect x="0" y="712" width="16" height="298"/>
    <rect x="416" y="712" width="16" height="298"/>
    <rect x="832" y="712" width="16" height="298"/>
    <rect x="1248" y="712" width="16" height="298"/>
    <rect x="1664" y="712" width="16" height="298"/>
    <rect x="2080" y="712" width="16" height="298"/>
    <rect x="2496" y="712" width="16" height="298"/>
  </g>
  <!-- Die Schranke, halb offen: eine Kontrolle, die stattfindet. -->
  <g fill="#0B0B0E">
    <rect x="1900" y="850" width="36" height="160"/>
    <rect x="1874" y="806" width="88" height="48" rx="10"/>
  </g>
  <g transform="rotate(-42 1918 818)">
    <rect x="1918" y="806" width="540" height="22" rx="9" fill="#0B0B0E"/>
    <rect x="1938" y="806" width="52" height="22" fill="#2F6BFF" opacity="0.75"/>
    <rect x="2042" y="806" width="52" height="22" fill="#2F6BFF" opacity="0.75"/>
    <rect x="2146" y="806" width="52" height="22" fill="#2F6BFF" opacity="0.75"/>
    <rect x="2250" y="806" width="52" height="22" fill="#2F6BFF" opacity="0.75"/>
    <rect x="2354" y="806" width="52" height="22" fill="#2F6BFF" opacity="0.75"/>
  </g>
  <g fill="#0B0B0E">
    <circle cx="640" cy="702" r="25.2" fill="#0B0B0E"/>
    <path d="M 594 737 L 686 737 L 696 870 L 584 870 Z" fill="#0B0B0E"/>
    <rect x="588" y="863" width="38" height="147" fill="#0B0B0E"/>
    <rect x="654" y="863" width="38" height="147" fill="#0B0B0E"/>
    <rect x="682" y="744" width="32" height="119" fill="#0B0B0E" transform="rotate(18 640 765)"/>
  </g>
  <rect width="2560" height="1440" fill="url(#overlay)"/>

  <!-- Die Akzentlinie: sechs Pixel, die Gesellschaft, sonst nichts. -->
  <rect x="128" y="1204" width="112" height="6" fill="#2F6BFF"/>
  <text x="128" y="1280" fill="#FAFAFA"
        font-family="Inter, system-ui, sans-serif" font-size="46" font-weight="600"
        letter-spacing="4">SSE SECURITY</text>
  <text x="128" y="1336" fill="#8B8B95"
        font-family="Inter, system-ui, sans-serif" font-size="30" font-weight="400">Hier steht spaeter eine Aufnahme aus dem Objektschutz.</text>
  <text x="2432" y="1336" fill="#8B8B95" text-anchor="end"
        font-family="ui-monospace, SFMono-Regular, Menlo, monospace" font-size="26"
        letter-spacing="3">PLATZHALTER · O-13</text>
</svg>
